# xmcd
#
# Track frame offsets:
#	150
#	13679
#	26101
#	48870
#	66747
#	79559
#	96030
#	106784
#	119925
#	134519
#	150992
#	164285
#	176157
#	188777
#	205662
#	217554
#	230498
#	242740
#	257970
#	272621
#	295222
#	310324
#
# Disc length: 4299
#
# Revision: 2
# Processed by: cddbd v1.5.1PL0 Copyright (c) Steve Scherf et al.
# Submitted via: audiograbber 1.80.04
# Normalized: r1:DSETVAR1
#
DISCID=3810c916
DTITLE=Various Artist - You're Having A Baby - Volume 01
DYEAR=2002
DGENRE=Blues
TTITLE0=B.B. King - You Upset Me Baby
TTITLE1=Lou Rawls - Baby, What You Want Me To Do?
TTITLE2=Buddy Guy - Let Me Love You Baby
TTITLE3=Eric Clapton - Goin' Away Baby
TTITLE4=The Fabulous Thunderbirds - My Babe
TTITLE5=Buddy Guy - Talk To Me Baby
TTITLE6=The Fabulous Thunderbirds - Walkin' To My Baby
TTITLE7=The Duke Robillard Band - I Still Love You Baby
TTITLE8=Steve Miller Band - Caress Me Baby
TTITLE9=Elvis Presley - Reconsider Baby
TTITLE10=B.B. King - Rock Me Baby
TTITLE11=Elvis Presley - Like A Baby
TTITLE12=Robert Cray - Love Struck Baby
TTITLE13=Tommy Castro - I've Got To Love Somebody's Baby
TTITLE14=Stevie Ray Vaughan and Double Trouble - Let Me Love You Baby
TTITLE15=Chris Isaak - Baby Did A Bad Bad Thing
TTITLE16=Los Lobos - Don't Worry Baby
TTITLE17=The Duke Robillard Band - Don't Leave Me Baby
TTITLE18=Lou Rawls - My Babe
TTITLE19=Phillip Walker - Hey, Hey Baby's Gone
TTITLE20=Neil Young - Come On Baby Let's Go Downtown
TTITLE21=Lou Rawls - Since I Met You Baby
EXTD=Nomae Recording: 000-471
EXTT0=
EXTT1=
EXTT2=
EXTT3=
EXTT4=
EXTT5=
EXTT6=
EXTT7=
EXTT8=
EXTT9=
EXTT10=
EXTT11=
EXTT12=
EXTT13=
EXTT14=
EXTT15=
EXTT16=
EXTT17=
EXTT18=
EXTT19=
EXTT20=
EXTT21=
PLAYORDER=
